<?xml version="1.0" encoding="utf-8" standalone="no"?>
<!DOCTYPE svg PUBLIC "-//W3C//DTD SVG 1.1//EN"
  "http://www.w3.org/Graphics/SVG/1.1/DTD/svg11.dtd">
<!-- Created with matplotlib (https://matplotlib.org/) -->
<svg height="424.474375pt" version="1.1" viewBox="0 0 712.288125 424.474375" width="712.288125pt" xmlns="http://www.w3.org/2000/svg" xmlns:xlink="http://www.w3.org/1999/xlink">
 <defs>
  <style type="text/css">
*{stroke-linecap:butt;stroke-linejoin:round;}
  </style>
 </defs>
 <g id="figure_1">
  <g id="patch_1">
   <path d="M 0 424.474375 
L 712.288125 424.474375 
L 712.288125 0 
L 0 0 
z
" style="fill:#ffffff;"/>
  </g>
  <g id="axes_1">
   <g id="patch_2">
    <path d="M 53.328125 71.268125 
L 705.088125 71.268125 
L 705.088125 22.318125 
L 53.328125 22.318125 
z
" style="fill:#ffffff;"/>
   </g>
   <g id="matplotlib.axis_1">
    <g id="xtick_1">
     <g id="line2d_1">
      <defs>
       <path d="M 0 0 
L 0 3.5 
" id="me3cd4f365e" style="stroke:#000000;stroke-width:0.8;"/>
      </defs>
      <g>
       <use style="stroke:#000000;stroke-width:0.8;" x="153.195068" xlink:href="#me3cd4f365e" y="71.268125"/>
      </g>
     </g>
     <g id="text_1">
      <!-- 4 -->
      <defs>
       <path d="M 37.796875 64.3125 
L 12.890625 25.390625 
L 37.796875 25.390625 
z
M 35.203125 72.90625 
L 47.609375 72.90625 
L 47.609375 25.390625 
L 58.015625 25.390625 
L 58.015625 17.1875 
L 47.609375 17.1875 
L 47.609375 0 
L 37.796875 0 
L 37.796875 17.1875 
L 4.890625 17.1875 
L 4.890625 26.703125 
z
" id="DejaVuSans-52"/>
      </defs>
      <g transform="translate(150.013818 85.866562)scale(0.1 -0.1)">
       <use xlink:href="#DejaVuSans-52"/>
      </g>
     </g>
    </g>
    <g id="xtick_2">
     <g id="line2d_2">
      <g>
       <use style="stroke:#000000;stroke-width:0.8;" x="275.994873" xlink:href="#me3cd4f365e" y="71.268125"/>
      </g>
     </g>
     <g id="text_2">
      <!-- 5 -->
      <defs>
       <path d="M 10.796875 72.90625 
L 49.515625 72.90625 
L 49.515625 64.59375 
L 19.828125 64.59375 
L 19.828125 46.734375 
Q 21.96875 47.46875 24.109375 47.828125 
Q 26.265625 48.1875 28.421875 48.1875 
Q 40.625 48.1875 47.75 41.5 
Q 54.890625 34.8125 54.890625 23.390625 
Q 54.890625 11.625 47.5625 5.09375 
Q 40.234375 -1.421875 26.90625 -1.421875 
Q 22.3125 -1.421875 17.546875 -0.640625 
Q 12.796875 0.140625 7.71875 1.703125 
L 7.71875 11.625 
Q 12.109375 9.234375 16.796875 8.0625 
Q 21.484375 6.890625 26.703125 6.890625 
Q 35.15625 6.890625 40.078125 11.328125 
Q 45.015625 15.765625 45.015625 23.390625 
Q 45.015625 31 40.078125 35.4375 
Q 35.15625 39.890625 26.703125 39.890625 
Q 22.75 39.890625 18.8125 39.015625 
Q 14.890625 38.140625 10.796875 36.28125 
z
" id="DejaVuSans-53"/>
      </defs>
      <g transform="translate(272.813623 85.866562)scale(0.1 -0.1)">
       <use xlink:href="#DejaVuSans-53"/>
      </g>
     </g>
    </g>
    <g id="xtick_3">
     <g id="line2d_3">
      <g>
       <use style="stroke:#000000;stroke-width:0.8;" x="398.794708" xlink:href="#me3cd4f365e" y="71.268125"/>
      </g>
     </g>
     <g id="text_3">
      <!-- 6 -->
      <defs>
       <path d="M 33.015625 40.375 
Q 26.375 40.375 22.484375 35.828125 
Q 18.609375 31.296875 18.609375 23.390625 
Q 18.609375 15.53125 22.484375 10.953125 
Q 26.375 6.390625 33.015625 6.390625 
Q 39.65625 6.390625 43.53125 10.953125 
Q 47.40625 15.53125 47.40625 23.390625 
Q 47.40625 31.296875 43.53125 35.828125 
Q 39.65625 40.375 33.015625 40.375 
z
M 52.59375 71.296875 
L 52.59375 62.3125 
Q 48.875 64.0625 45.09375 64.984375 
Q 41.3125 65.921875 37.59375 65.921875 
Q 27.828125 65.921875 22.671875 59.328125 
Q 17.53125 52.734375 16.796875 39.40625 
Q 19.671875 43.65625 24.015625 45.921875 
Q 28.375 48.1875 33.59375 48.1875 
Q 44.578125 48.1875 50.953125 41.515625 
Q 57.328125 34.859375 57.328125 23.390625 
Q 57.328125 12.15625 50.6875 5.359375 
Q 44.046875 -1.421875 33.015625 -1.421875 
Q 20.359375 -1.421875 13.671875 8.265625 
Q 6.984375 17.96875 6.984375 36.375 
Q 6.984375 53.65625 15.1875 63.9375 
Q 23.390625 74.21875 37.203125 74.21875 
Q 40.921875 74.21875 44.703125 73.484375 
Q 48.484375 72.75 52.59375 71.296875 
z
" id="DejaVuSans-54"/>
      </defs>
      <g transform="translate(395.613458 85.866562)scale(0.1 -0.1)">
       <use xlink:href="#DejaVuSans-54"/>
      </g>
     </g>
    </g>
    <g id="xtick_4">
     <g id="line2d_4">
      <g>
       <use style="stroke:#000000;stroke-width:0.8;" x="521.594513" xlink:href="#me3cd4f365e" y="71.268125"/>
      </g>
     </g>
     <g id="text_4">
      <!-- 7 -->
      <defs>
       <path d="M 8.203125 72.90625 
L 55.078125 72.90625 
L 55.078125 68.703125 
L 28.609375 0 
L 18.3125 0 
L 43.21875 64.59375 
L 8.203125 64.59375 
z
" id="DejaVuSans-55"/>
      </defs>
      <g transform="translate(518.413263 85.866562)scale(0.1 -0.1)">
       <use xlink:href="#DejaVuSans-55"/>
      </g>
     </g>
    </g>
    <g id="xtick_5">
     <g id="line2d_5">
      <g>
       <use style="stroke:#000000;stroke-width:0.8;" x="644.394318" xlink:href="#me3cd4f365e" y="71.268125"/>
      </g>
     </g>
     <g id="text_5">
      <!-- 8 -->
      <defs>
       <path d="M 31.78125 34.625 
Q 24.75 34.625 20.71875 30.859375 
Q 16.703125 27.09375 16.703125 20.515625 
Q 16.703125 13.921875 20.71875 10.15625 
Q 24.75 6.390625 31.78125 6.390625 
Q 38.8125 6.390625 42.859375 10.171875 
Q 46.921875 13.96875 46.921875 20.515625 
Q 46.921875 27.09375 42.890625 30.859375 
Q 38.875 34.625 31.78125 34.625 
z
M 21.921875 38.8125 
Q 15.578125 40.375 12.03125 44.71875 
Q 8.5 49.078125 8.5 55.328125 
Q 8.5 64.0625 14.71875 69.140625 
Q 20.953125 74.21875 31.78125 74.21875 
Q 42.671875 74.21875 48.875 69.140625 
Q 55.078125 64.0625 55.078125 55.328125 
Q 55.078125 49.078125 51.53125 44.71875 
Q 48 40.375 41.703125 38.8125 
Q 48.828125 37.15625 52.796875 32.3125 
Q 56.78125 27.484375 56.78125 20.515625 
Q 56.78125 9.90625 50.3125 4.234375 
Q 43.84375 -1.421875 31.78125 -1.421875 
Q 19.734375 -1.421875 13.25 4.234375 
Q 6.78125 9.90625 6.78125 20.515625 
Q 6.78125 27.484375 10.78125 32.3125 
Q 14.796875 37.15625 21.921875 38.8125 
z
M 18.3125 54.390625 
Q 18.3125 48.734375 21.84375 45.5625 
Q 25.390625 42.390625 31.78125 42.390625 
Q 38.140625 42.390625 41.71875 45.5625 
Q 45.3125 48.734375 45.3125 54.390625 
Q 45.3125 60.0625 41.71875 63.234375 
Q 38.140625 66.40625 31.78125 66.40625 
Q 25.390625 66.40625 21.84375 63.234375 
Q 18.3125 60.0625 18.3125 54.390625 
z
" id="DejaVuSans-56"/>
      </defs>
      <g transform="translate(641.213068 85.866562)scale(0.1 -0.1)">
       <use xlink:href="#DejaVuSans-56"/>
      </g>
     </g>
    </g>
    <g id="text_6">
     <!-- Time (ms) -->
     <defs>
      <path d="M -0.296875 72.90625 
L 61.375 72.90625 
L 61.375 64.59375 
L 35.5 64.59375 
L 35.5 0 
L 25.59375 0 
L 25.59375 64.59375 
L -0.296875 64.59375 
z
" id="DejaVuSans-84"/>
      <path d="M 9.421875 54.6875 
L 18.40625 54.6875 
L 18.40625 0 
L 9.421875 0 
z
M 9.421875 75.984375 
L 18.40625 75.984375 
L 18.40625 64.59375 
L 9.421875 64.59375 
z
" id="DejaVuSans-105"/>
      <path d="M 52 44.1875 
Q 55.375 50.25 60.0625 53.125 
Q 64.75 56 71.09375 56 
Q 79.640625 56 84.28125 50.015625 
Q 88.921875 44.046875 88.921875 33.015625 
L 88.921875 0 
L 79.890625 0 
L 79.890625 32.71875 
Q 79.890625 40.578125 77.09375 44.375 
Q 74.3125 48.1875 68.609375 48.1875 
Q 61.625 48.1875 57.5625 43.546875 
Q 53.515625 38.921875 53.515625 30.90625 
L 53.515625 0 
L 44.484375 0 
L 44.484375 32.71875 
Q 44.484375 40.625 41.703125 44.40625 
Q 38.921875 48.1875 33.109375 48.1875 
Q 26.21875 48.1875 22.15625 43.53125 
Q 18.109375 38.875 18.109375 30.90625 
L 18.109375 0 
L 9.078125 0 
L 9.078125 54.6875 
L 18.109375 54.6875 
L 18.109375 46.1875 
Q 21.1875 51.21875 25.484375 53.609375 
Q 29.78125 56 35.6875 56 
Q 41.65625 56 45.828125 52.96875 
Q 50 49.953125 52 44.1875 
z
" id="DejaVuSans-109"/>
      <path d="M 56.203125 29.59375 
L 56.203125 25.203125 
L 14.890625 25.203125 
Q 15.484375 15.921875 20.484375 11.0625 
Q 25.484375 6.203125 34.421875 6.203125 
Q 39.59375 6.203125 44.453125 7.46875 
Q 49.3125 8.734375 54.109375 11.28125 
L 54.109375 2.78125 
Q 49.265625 0.734375 44.1875 -0.34375 
Q 39.109375 -1.421875 33.890625 -1.421875 
Q 20.796875 -1.421875 13.15625 6.1875 
Q 5.515625 13.8125 5.515625 26.8125 
Q 5.515625 40.234375 12.765625 48.109375 
Q 20.015625 56 32.328125 56 
Q 43.359375 56 49.78125 48.890625 
Q 56.203125 41.796875 56.203125 29.59375 
z
M 47.21875 32.234375 
Q 47.125 39.59375 43.09375 43.984375 
Q 39.0625 48.390625 32.421875 48.390625 
Q 24.90625 48.390625 20.390625 44.140625 
Q 15.875 39.890625 15.1875 32.171875 
z
" id="DejaVuSans-101"/>
      <path id="DejaVuSans-32"/>
      <path d="M 31 75.875 
Q 24.46875 64.65625 21.28125 53.65625 
Q 18.109375 42.671875 18.109375 31.390625 
Q 18.109375 20.125 21.3125 9.0625 
Q 24.515625 -2 31 -13.1875 
L 23.1875 -13.1875 
Q 15.875 -1.703125 12.234375 9.375 
Q 8.59375 20.453125 8.59375 31.390625 
Q 8.59375 42.28125 12.203125 53.3125 
Q 15.828125 64.359375 23.1875 75.875 
z
" id="DejaVuSans-40"/>
      <path d="M 44.28125 53.078125 
L 44.28125 44.578125 
Q 40.484375 46.53125 36.375 47.5 
Q 32.28125 48.484375 27.875 48.484375 
Q 21.1875 48.484375 17.84375 46.4375 
Q 14.5 44.390625 14.5 40.28125 
Q 14.5 37.15625 16.890625 35.375 
Q 19.28125 33.59375 26.515625 31.984375 
L 29.59375 31.296875 
Q 39.15625 29.25 43.1875 25.515625 
Q 47.21875 21.78125 47.21875 15.09375 
Q 47.21875 7.46875 41.1875 3.015625 
Q 35.15625 -1.421875 24.609375 -1.421875 
Q 20.21875 -1.421875 15.453125 -0.5625 
Q 10.6875 0.296875 5.421875 2 
L 5.421875 11.28125 
Q 10.40625 8.6875 15.234375 7.390625 
Q 20.0625 6.109375 24.8125 6.109375 
Q 31.15625 6.109375 34.5625 8.28125 
Q 37.984375 10.453125 37.984375 14.40625 
Q 37.984375 18.0625 35.515625 20.015625 
Q 33.0625 21.96875 24.703125 23.78125 
L 21.578125 24.515625 
Q 13.234375 26.265625 9.515625 29.90625 
Q 5.8125 33.546875 5.8125 39.890625 
Q 5.8125 47.609375 11.28125 51.796875 
Q 16.75 56 26.8125 56 
Q 31.78125 56 36.171875 55.265625 
Q 40.578125 54.546875 44.28125 53.078125 
z
" id="DejaVuSans-115"/>
      <path d="M 8.015625 75.875 
L 15.828125 75.875 
Q 23.140625 64.359375 26.78125 53.3125 
Q 30.421875 42.28125 30.421875 31.390625 
Q 30.421875 20.453125 26.78125 9.375 
Q 23.140625 -1.703125 15.828125 -13.1875 
L 8.015625 -13.1875 
Q 14.5 -2 17.703125 9.0625 
Q 20.90625 20.125 20.90625 31.390625 
Q 20.90625 42.671875 17.703125 53.65625 
Q 14.5 64.65625 8.015625 75.875 
z
" id="DejaVuSans-41"/>
     </defs>
     <g transform="translate(353.855 99.544688)scale(0.1 -0.1)">
      <use xlink:href="#DejaVuSans-84"/>
      <use x="61.037109" xlink:href="#DejaVuSans-105"/>
      <use x="88.820312" xlink:href="#DejaVuSans-109"/>
      <use x="186.232422" xlink:href="#DejaVuSans-101"/>
      <use x="247.755859" xlink:href="#DejaVuSans-32"/>
      <use x="279.542969" xlink:href="#DejaVuSans-40"/>
      <use x="318.556641" xlink:href="#DejaVuSans-109"/>
      <use x="415.96875" xlink:href="#DejaVuSans-115"/>
      <use x="468.068359" xlink:href="#DejaVuSans-41"/>
     </g>
    </g>
    <g id="text_7">
     <!-- 1e3+1.57752161e12 -->
     <defs>
      <path d="M 12.40625 8.296875 
L 28.515625 8.296875 
L 28.515625 63.921875 
L 10.984375 60.40625 
L 10.984375 69.390625 
L 28.421875 72.90625 
L 38.28125 72.90625 
L 38.28125 8.296875 
L 54.390625 8.296875 
L 54.390625 0 
L 12.40625 0 
z
" id="DejaVuSans-49"/>
      <path d="M 40.578125 39.3125 
Q 47.65625 37.796875 51.625 33 
Q 55.609375 28.21875 55.609375 21.1875 
Q 55.609375 10.40625 48.1875 4.484375 
Q 40.765625 -1.421875 27.09375 -1.421875 
Q 22.515625 -1.421875 17.65625 -0.515625 
Q 12.796875 0.390625 7.625 2.203125 
L 7.625 11.71875 
Q 11.71875 9.328125 16.59375 8.109375 
Q 21.484375 6.890625 26.8125 6.890625 
Q 36.078125 6.890625 40.9375 10.546875 
Q 45.796875 14.203125 45.796875 21.1875 
Q 45.796875 27.640625 41.28125 31.265625 
Q 36.765625 34.90625 28.71875 34.90625 
L 20.21875 34.90625 
L 20.21875 43.015625 
L 29.109375 43.015625 
Q 36.375 43.015625 40.234375 45.921875 
Q 44.09375 48.828125 44.09375 54.296875 
Q 44.09375 59.90625 40.109375 62.90625 
Q 36.140625 65.921875 28.71875 65.921875 
Q 24.65625 65.921875 20.015625 65.03125 
Q 15.375 64.15625 9.8125 62.3125 
L 9.8125 71.09375 
Q 15.4375 72.65625 20.34375 73.4375 
Q 25.25 74.21875 29.59375 74.21875 
Q 40.828125 74.21875 47.359375 69.109375 
Q 53.90625 64.015625 53.90625 55.328125 
Q 53.90625 49.265625 50.4375 45.09375 
Q 46.96875 40.921875 40.578125 39.3125 
z
" id="DejaVuSans-51"/>
      <path d="M 46 62.703125 
L 46 35.5 
L 73.1875 35.5 
L 73.1875 27.203125 
L 46 27.203125 
L 46 0 
L 37.796875 0 
L 37.796875 27.203125 
L 10.59375 27.203125 
L 10.59375 35.5 
L 37.796875 35.5 
L 37.796875 62.703125 
z
" id="DejaVuSans-43"/>
      <path d="M 10.6875 12.40625 
L 21 12.40625 
L 21 0 
L 10.6875 0 
z
" id="DejaVuSans-46"/>
      <path d="M 19.1875 8.296875 
L 53.609375 8.296875 
L 53.609375 0 
L 7.328125 0 
L 7.328125 8.296875 
Q 12.9375 14.109375 22.625 23.890625 
Q 32.328125 33.6875 34.8125 36.53125 
Q 39.546875 41.84375 41.421875 45.53125 
Q 43.3125 49.21875 43.3125 52.78125 
Q 43.3125 58.59375 39.234375 62.25 
Q 35.15625 65.921875 28.609375 65.921875 
Q 23.96875 65.921875 18.8125 64.3125 
Q 13.671875 62.703125 7.8125 59.421875 
L 7.8125 69.390625 
Q 13.765625 71.78125 18.9375 73 
Q 24.125 74.21875 28.421875 74.21875 
Q 39.75 74.21875 46.484375 68.546875 
Q 53.21875 62.890625 53.21875 53.421875 
Q 53.21875 48.921875 51.53125 44.890625 
Q 49.859375 40.875 45.40625 35.40625 
Q 44.1875 33.984375 37.640625 27.21875 
Q 31.109375 20.453125 19.1875 8.296875 
z
" id="DejaVuSans-50"/>
     </defs>
     <g transform="translate(598.511562 98.544688)scale(0.1 -0.1)">
      <use xlink:href="#DejaVuSans-49"/>
      <use x="63.623047" xlink:href="#DejaVuSans-101"/>
      <use x="125.146484" xlink:href="#DejaVuSans-51"/>
      <use x="188.769531" xlink:href="#DejaVuSans-43"/>
      <use x="272.558594" xlink:href="#DejaVuSans-49"/>
      <use x="336.181641" xlink:href="#DejaVuSans-46"/>
      <use x="367.96875" xlink:href="#DejaVuSans-53"/>
      <use x="431.591797" xlink:href="#DejaVuSans-55"/>
      <use x="495.214844" xlink:href="#DejaVuSans-55"/>
      <use x="558.837891" xlink:href="#DejaVuSans-53"/>
      <use x="622.460938" xlink:href="#DejaVuSans-50"/>
      <use x="686.083984" xlink:href="#DejaVuSans-49"/>
      <use x="749.707031" xlink:href="#DejaVuSans-54"/>
      <use x="813.330078" xlink:href="#DejaVuSans-49"/>
      <use x="876.953125" xlink:href="#DejaVuSans-101"/>
      <use x="938.476562" xlink:href="#DejaVuSans-49"/>
      <use x="1002.099609" xlink:href="#DejaVuSans-50"/>
     </g>
    </g>
   </g>
   <g id="matplotlib.axis_2">
    <g id="ytick_1">
     <g id="line2d_6">
      <defs>
       <path d="M 0 0 
L -3.5 0 
" id="mfe45144f0f" style="stroke:#000000;stroke-width:0.8;"/>
      </defs>
      <g>
       <use style="stroke:#000000;stroke-width:0.8;" x="53.328125" xlink:href="#mfe45144f0f" y="69.043125"/>
      </g>
     </g>
     <g id="text_8">
      <!-- 0 -->
      <defs>
       <path d="M 31.78125 66.40625 
Q 24.171875 66.40625 20.328125 58.90625 
Q 16.5 51.421875 16.5 36.375 
Q 16.5 21.390625 20.328125 13.890625 
Q 24.171875 6.390625 31.78125 6.390625 
Q 39.453125 6.390625 43.28125 13.890625 
Q 47.125 21.390625 47.125 36.375 
Q 47.125 51.421875 43.28125 58.90625 
Q 39.453125 66.40625 31.78125 66.40625 
z
M 31.78125 74.21875 
Q 44.046875 74.21875 50.515625 64.515625 
Q 56.984375 54.828125 56.984375 36.375 
Q 56.984375 17.96875 50.515625 8.265625 
Q 44.046875 -1.421875 31.78125 -1.421875 
Q 19.53125 -1.421875 13.0625 8.265625 
Q 6.59375 17.96875 6.59375 36.375 
Q 6.59375 54.828125 13.0625 64.515625 
Q 19.53125 74.21875 31.78125 74.21875 
z
" id="DejaVuSans-48"/>
      </defs>
      <g transform="translate(39.965625 72.842344)scale(0.1 -0.1)">
       <use xlink:href="#DejaVuSans-48"/>
      </g>
     </g>
    </g>
    <g id="ytick_2">
     <g id="line2d_7">
      <g>
       <use style="stroke:#000000;stroke-width:0.8;" x="53.328125" xlink:href="#mfe45144f0f" y="25.586094"/>
      </g>
     </g>
     <g id="text_9">
      <!-- 1000 -->
      <g transform="translate(20.878125 29.385312)scale(0.1 -0.1)">
       <use xlink:href="#DejaVuSans-49"/>
       <use x="63.623047" xlink:href="#DejaVuSans-48"/>
       <use x="127.246094" xlink:href="#DejaVuSans-48"/>
       <use x="190.869141" xlink:href="#DejaVuSans-48"/>
      </g>
     </g>
    </g>
    <g id="text_10">
     <!-- ADC Value -->
     <defs>
      <path d="M 34.1875 63.1875 
L 20.796875 26.90625 
L 47.609375 26.90625 
z
M 28.609375 72.90625 
L 39.796875 72.90625 
L 67.578125 0 
L 57.328125 0 
L 50.6875 18.703125 
L 17.828125 18.703125 
L 11.1875 0 
L 0.78125 0 
z
" id="DejaVuSans-65"/>
      <path d="M 19.671875 64.796875 
L 19.671875 8.109375 
L 31.59375 8.109375 
Q 46.6875 8.109375 53.6875 14.9375 
Q 60.6875 21.78125 60.6875 36.53125 
Q 60.6875 51.171875 53.6875 57.984375 
Q 46.6875 64.796875 31.59375 64.796875 
z
M 9.8125 72.90625 
L 30.078125 72.90625 
Q 51.265625 72.90625 61.171875 64.09375 
Q 71.09375 55.28125 71.09375 36.53125 
Q 71.09375 17.671875 61.125 8.828125 
Q 51.171875 0 30.078125 0 
L 9.8125 0 
z
" id="DejaVuSans-68"/>
      <path d="M 64.40625 67.28125 
L 64.40625 56.890625 
Q 59.421875 61.53125 53.78125 63.8125 
Q 48.140625 66.109375 41.796875 66.109375 
Q 29.296875 66.109375 22.65625 58.46875 
Q 16.015625 50.828125 16.015625 36.375 
Q 16.015625 21.96875 22.65625 14.328125 
Q 29.296875 6.6875 41.796875 6.6875 
Q 48.140625 6.6875 53.78125 8.984375 
Q 59.421875 11.28125 64.40625 15.921875 
L 64.40625 5.609375 
Q 59.234375 2.09375 53.4375 0.328125 
Q 47.65625 -1.421875 41.21875 -1.421875 
Q 24.65625 -1.421875 15.125 8.703125 
Q 5.609375 18.84375 5.609375 36.375 
Q 5.609375 53.953125 15.125 64.078125 
Q 24.65625 74.21875 41.21875 74.21875 
Q 47.75 74.21875 53.53125 72.484375 
Q 59.328125 70.75 64.40625 67.28125 
z
" id="DejaVuSans-67"/>
      <path d="M 28.609375 0 
L 0.78125 72.90625 
L 11.078125 72.90625 
L 34.1875 11.53125 
L 57.328125 72.90625 
L 67.578125 72.90625 
L 39.796875 0 
z
" id="DejaVuSans-86"/>
      <path d="M 34.28125 27.484375 
Q 23.390625 27.484375 19.1875 25 
Q 14.984375 22.515625 14.984375 16.5 
Q 14.984375 11.71875 18.140625 8.90625 
Q 21.296875 6.109375 26.703125 6.109375 
Q 34.1875 6.109375 38.703125 11.40625 
Q 43.21875 16.703125 43.21875 25.484375 
L 43.21875 27.484375 
z
M 52.203125 31.203125 
L 52.203125 0 
L 43.21875 0 
L 43.21875 8.296875 
Q 40.140625 3.328125 35.546875 0.953125 
Q 30.953125 -1.421875 24.3125 -1.421875 
Q 15.921875 -1.421875 10.953125 3.296875 
Q 6 8.015625 6 15.921875 
Q 6 25.140625 12.171875 29.828125 
Q 18.359375 34.515625 30.609375 34.515625 
L 43.21875 34.515625 
L 43.21875 35.40625 
Q 43.21875 41.609375 39.140625 45 
Q 35.0625 48.390625 27.6875 48.390625 
Q 23 48.390625 18.546875 47.265625 
Q 14.109375 46.140625 10.015625 43.890625 
L 10.015625 52.203125 
Q 14.9375 54.109375 19.578125 55.046875 
Q 24.21875 56 28.609375 56 
Q 40.484375 56 46.34375 49.84375 
Q 52.203125 43.703125 52.203125 31.203125 
z
" id="DejaVuSans-97"/>
      <path d="M 9.421875 75.984375 
L 18.40625 75.984375 
L 18.40625 0 
L 9.421875 0 
z
" id="DejaVuSans-108"/>
      <path d="M 8.5 21.578125 
L 8.5 54.6875 
L 17.484375 54.6875 
L 17.484375 21.921875 
Q 17.484375 14.15625 20.5 10.265625 
Q 23.53125 6.390625 29.59375 6.390625 
Q 36.859375 6.390625 41.078125 11.03125 
Q 45.3125 15.671875 45.3125 23.6875 
L 45.3125 54.6875 
L 54.296875 54.6875 
L 54.296875 0 
L 45.3125 0 
L 45.3125 8.40625 
Q 42.046875 3.421875 37.71875 1 
Q 33.40625 -1.421875 27.6875 -1.421875 
Q 18.265625 -1.421875 13.375 4.4375 
Q 8.5 10.296875 8.5 21.578125 
z
M 31.109375 56 
z
" id="DejaVuSans-117"/>
     </defs>
     <g transform="translate(14.798438 73.257188)rotate(-90)scale(0.1 -0.1)">
      <use xlink:href="#DejaVuSans-65"/>
      <use x="68.408203" xlink:href="#DejaVuSans-68"/>
      <use x="145.410156" xlink:href="#DejaVuSans-67"/>
      <use x="215.234375" xlink:href="#DejaVuSans-32"/>
      <use x="247.021484" xlink:href="#DejaVuSans-86"/>
      <use x="315.320312" xlink:href="#DejaVuSans-97"/>
      <use x="376.599609" xlink:href="#DejaVuSans-108"/>
      <use x="404.382812" xlink:href="#DejaVuSans-117"/>
      <use x="467.761719" xlink:href="#DejaVuSans-101"/>
     </g>
    </g>
   </g>
   <g id="line2d_8">
    <path clip-path="url(#pa98989b51d)" d="M 82.953583 64.610508 
L 85.532379 60.525547 
L 95.970367 37.840977 
L 98.303558 33.277988 
L 101.250763 28.975742 
L 103.706757 25.890293 
L 106.531158 24.586582 
L 109.232727 24.977695 
L 111.811523 26.889805 
L 114.267548 30.018711 
L 116.723541 34.190586 
L 119.179535 39.144687 
L 121.635529 44.576816 
L 124.091522 50.400059 
L 126.793121 56.266758 
L 129.371918 60.960117 
L 131.950714 64.958164 
L 134.52951 67.695957 
L 137.108307 68.956211 
L 139.564301 68.738926 
L 142.143097 67.044102 
L 144.721893 63.958652 
L 147.30069 59.656406 
L 152.212677 49.009434 
L 157.124664 38.101719 
L 159.703461 33.060703 
L 162.282257 28.975742 
L 164.861053 26.107578 
L 167.317047 24.716953 
L 170.018646 24.803867 
L 172.47464 26.324863 
L 174.930634 29.106113 
L 177.386627 33.060703 
L 179.842621 37.840977 
L 190.157806 60.090977 
L 192.736603 64.306309 
L 195.438202 67.261387 
L 197.771393 68.782383 
L 200.350189 68.912754 
L 202.806213 67.565586 
L 205.262207 64.958164 
L 207.963776 60.960117 
L 210.4198 56.266758 
L 217.664978 39.926914 
L 220.120972 34.885898 
L 222.699768 30.583652 
L 225.278564 27.020176 
L 227.734558 25.108066 
L 230.313354 24.543125 
L 232.769348 25.368809 
L 235.102539 27.585117 
L 237.804138 31.148594 
L 240.137329 35.581211 
L 245.294922 46.532383 
L 247.873718 52.312168 
L 250.329712 57.527012 
L 252.908508 62.220371 
L 255.610107 65.870762 
L 258.066101 68.217441 
L 260.399323 69.043125 
L 262.978119 68.39127 
L 265.556915 66.305332 
L 268.012909 63.002598 
L 270.468903 58.700352 
L 272.924896 53.659336 
L 277.959686 42.62125 
L 280.41568 37.319492 
L 282.871674 32.626133 
L 285.696075 28.454258 
L 288.029266 25.890293 
L 290.608063 24.630039 
L 293.186859 24.890781 
L 295.642853 26.67252 
L 298.344452 29.844883 
L 300.55484 33.712559 
L 303.133636 38.883945 
L 305.835236 44.576816 
L 310.870026 55.745273 
L 313.448822 60.742832 
L 315.904816 64.610508 
L 318.238007 67.391758 
L 320.694031 68.82584 
L 323.272827 68.869297 
L 325.728821 67.478672 
L 328.307617 64.784336 
L 330.640808 60.960117 
L 336.166779 50.400059 
L 338.377197 44.576816 
L 340.833191 39.144687 
L 343.289185 34.190586 
L 345.867981 30.018711 
L 348.323975 26.889805 
L 350.779968 25.064609 
L 353.235962 24.543125 
L 355.691956 25.455723 
L 358.270752 27.845859 
L 360.849548 31.365879 
L 363.551147 36.059238 
L 366.129944 41.534824 
L 370.919128 52.616367 
L 373.620728 57.744297 
L 375.953918 62.437656 
L 378.409943 66.001133 
L 380.988739 68.260898 
L 383.32193 69.043125 
L 386.146332 68.260898 
L 388.479523 66.174961 
L 390.935516 62.82877 
L 393.39151 58.483066 
L 396.338715 52.616367 
L 398.671906 47.053867 
L 401.250702 41.274082 
L 403.706696 36.059238 
L 406.285492 31.583164 
L 408.741486 28.019687 
L 411.074677 25.629551 
L 413.776276 24.586582 
L 416.109467 24.977695 
L 418.56546 26.802891 
L 421.021454 29.844883 
L 423.723053 33.929844 
L 428.880646 44.272617 
L 431.213837 50.139316 
L 433.915436 55.745273 
L 436.494232 60.742832 
L 438.950226 64.784336 
L 441.283447 67.391758 
L 443.985016 68.869297 
L 446.318237 68.782383 
L 449.019806 67.261387 
L 451.47583 64.480137 
L 454.054626 60.525547 
L 456.633423 55.484531 
L 459.089417 49.878574 
L 462.282196 42.881992 
L 464.615387 37.319492 
L 466.948578 32.626133 
L 469.404602 28.801914 
L 471.860596 26.107578 
L 474.316589 24.716953 
L 477.018188 24.76041 
L 479.474182 26.324863 
L 482.052979 29.279941 
L 484.386169 33.060703 
L 486.842163 37.840977 
L 491.876953 49.009434 
L 494.45575 54.702305 
L 497.157349 60.090977 
L 499.613342 64.13248 
L 502.192139 67.174473 
L 504.648132 68.738926 
L 507.104126 68.956211 
L 509.682922 67.695957 
L 512.261719 64.958164 
L 514.717712 61.394687 
L 517.173706 56.5275 
L 527.243286 34.885898 
L 529.822083 30.366367 
L 532.278107 27.020176 
L 534.7341 25.19498 
L 537.190094 24.543125 
L 539.646088 25.368809 
L 542.224884 27.715488 
L 544.80368 31.365879 
L 547.259674 35.841953 
L 549.83847 40.969883 
L 557.206451 57.527012 
L 559.662445 62.003086 
L 562.118439 65.566562 
L 564.697235 68.043613 
L 567.276031 68.999668 
L 569.732025 68.521641 
L 572.188019 66.696445 
L 574.644043 63.567539 
L 577.100037 59.395664 
L 579.678833 54.441562 
L 582.012024 49.009434 
L 587.292419 37.580234 
L 589.748413 32.626133 
L 592.327209 28.801914 
L 594.783203 26.020664 
L 597.239197 24.673496 
L 599.69519 24.76041 
L 602.39679 26.324863 
L 604.852783 29.106113 
L 607.308777 33.060703 
L 609.764771 37.840977 
L 614.799561 49.009434 
L 617.255554 54.702305 
L 619.711548 59.656406 
L 622.413147 63.958652 
L 624.869141 66.91373 
L 627.816345 68.82584 
L 630.395142 68.869297 
L 632.851135 67.391758 
L 635.429932 64.610508 
L 637.885925 60.742832 
L 640.464722 55.745273 
L 642.797913 50.400059 
L 645.376709 44.837559 
L 647.70993 39.40543 
L 650.165924 34.407871 
L 652.74472 30.192539 
L 655.077911 27.020176 
L 657.656708 25.064609 
L 660.235504 24.586582 
L 662.814301 25.542637 
L 675.462677 33.929844 
L 675.462677 33.929844 
" style="fill:none;stroke:#1f77b4;stroke-linecap:square;stroke-width:1.5;"/>
   </g>
   <g id="patch_3">
    <path d="M 53.328125 71.268125 
L 53.328125 22.318125 
" style="fill:none;stroke:#000000;stroke-linecap:square;stroke-linejoin:miter;stroke-width:0.8;"/>
   </g>
   <g id="patch_4">
    <path d="M 705.088125 71.268125 
L 705.088125 22.318125 
" style="fill:none;stroke:#000000;stroke-linecap:square;stroke-linejoin:miter;stroke-width:0.8;"/>
   </g>
   <g id="patch_5">
    <path d="M 53.328125 71.268125 
L 705.088135 71.268125 
" style="fill:none;stroke:#000000;stroke-linecap:square;stroke-linejoin:miter;stroke-width:0.8;"/>
   </g>
   <g id="patch_6">
    <path d="M 53.328125 22.318125 
L 705.088135 22.318125 
" style="fill:none;stroke:#000000;stroke-linecap:square;stroke-linejoin:miter;stroke-width:0.8;"/>
   </g>
   <g id="text_11">
    <!-- RED Input Signal -->
    <defs>
     <path d="M 44.390625 34.1875 
Q 47.5625 33.109375 50.5625 29.59375 
Q 53.5625 26.078125 56.59375 19.921875 
L 66.609375 0 
L 56 0 
L 46.6875 18.703125 
Q 43.0625 26.03125 39.671875 28.421875 
Q 36.28125 30.8125 30.421875 30.8125 
L 19.671875 30.8125 
L 19.671875 0 
L 9.8125 0 
L 9.8125 72.90625 
L 32.078125 72.90625 
Q 44.578125 72.90625 50.734375 67.671875 
Q 56.890625 62.453125 56.890625 51.90625 
Q 56.890625 45.015625 53.6875 40.46875 
Q 50.484375 35.9375 44.390625 34.1875 
z
M 19.671875 64.796875 
L 19.671875 38.921875 
L 32.078125 38.921875 
Q 39.203125 38.921875 42.84375 42.21875 
Q 46.484375 45.515625 46.484375 51.90625 
Q 46.484375 58.296875 42.84375 61.546875 
Q 39.203125 64.796875 32.078125 64.796875 
z
" id="DejaVuSans-82"/>
     <path d="M 9.8125 72.90625 
L 55.90625 72.90625 
L 55.90625 64.59375 
L 19.671875 64.59375 
L 19.671875 43.015625 
L 54.390625 43.015625 
L 54.390625 34.71875 
L 19.671875 34.71875 
L 19.671875 8.296875 
L 56.78125 8.296875 
L 56.78125 0 
L 9.8125 0 
z
" id="DejaVuSans-69"/>
     <path d="M 9.8125 72.90625 
L 19.671875 72.90625 
L 19.671875 0 
L 9.8125 0 
z
" id="DejaVuSans-73"/>
     <path d="M 54.890625 33.015625 
L 54.890625 0 
L 45.90625 0 
L 45.90625 32.71875 
Q 45.90625 40.484375 42.875 44.328125 
Q 39.84375 48.1875 33.796875 48.1875 
Q 26.515625 48.1875 22.3125 43.546875 
Q 18.109375 38.921875 18.109375 30.90625 
L 18.109375 0 
L 9.078125 0 
L 9.078125 54.6875 
L 18.109375 54.6875 
L 18.109375 46.1875 
Q 21.34375 51.125 25.703125 53.5625 
Q 30.078125 56 35.796875 56 
Q 45.21875 56 50.046875 50.171875 
Q 54.890625 44.34375 54.890625 33.015625 
z
" id="DejaVuSans-110"/>
     <path d="M 18.109375 8.203125 
L 18.109375 -20.796875 
L 9.078125 -20.796875 
L 9.078125 54.6875 
L 18.109375 54.6875 
L 18.109375 46.390625 
Q 20.953125 51.265625 25.265625 53.625 
Q 29.59375 56 35.59375 56 
Q 45.5625 56 51.78125 48.09375 
Q 58.015625 40.1875 58.015625 27.296875 
Q 58.015625 14.40625 51.78125 6.484375 
Q 45.5625 -1.421875 35.59375 -1.421875 
Q 29.59375 -1.421875 25.265625 0.953125 
Q 20.953125 3.328125 18.109375 8.203125 
z
M 48.6875 27.296875 
Q 48.6875 37.203125 44.609375 42.84375 
Q 40.53125 48.484375 33.40625 48.484375 
Q 26.265625 48.484375 22.1875 42.84375 
Q 18.109375 37.203125 18.109375 27.296875 
Q 18.109375 17.390625 22.1875 11.75 
Q 26.265625 6.109375 33.40625 6.109375 
Q 40.53125 6.109375 44.609375 11.75 
Q 48.6875 17.390625 48.6875 27.296875 
z
" id="DejaVuSans-112"/>
     <path d="M 18.3125 70.21875 
L 18.3125 54.6875 
L 36.8125 54.6875 
L 36.8125 47.703125 
L 18.3125 47.703125 
L 18.3125 18.015625 
Q 18.3125 11.328125 20.140625 9.421875 
Q 21.96875 7.515625 27.59375 7.515625 
L 36.8125 7.515625 
L 36.8125 0 
L 27.59375 0 
Q 17.1875 0 13.234375 3.875 
Q 9.28125 7.765625 9.28125 18.015625 
L 9.28125 47.703125 
L 2.6875 47.703125 
L 2.6875 54.6875 
L 9.28125 54.6875 
L 9.28125 70.21875 
z
" id="DejaVuSans-116"/>
     <path d="M 53.515625 70.515625 
L 53.515625 60.890625 
Q 47.90625 63.578125 42.921875 64.890625 
Q 37.9375 66.21875 33.296875 66.21875 
Q 25.25 66.21875 20.875 63.09375 
Q 16.5 59.96875 16.5 54.203125 
Q 16.5 49.359375 19.40625 46.890625 
Q 22.3125 44.4375 30.421875 42.921875 
L 36.375 41.703125 
Q 47.40625 39.59375 52.65625 34.296875 
Q 57.90625 29 57.90625 20.125 
Q 57.90625 9.515625 50.796875 4.046875 
Q 43.703125 -1.421875 29.984375 -1.421875 
Q 24.8125 -1.421875 18.96875 -0.25 
Q 13.140625 0.921875 6.890625 3.21875 
L 6.890625 13.375 
Q 12.890625 10.015625 18.65625 8.296875 
Q 24.421875 6.59375 29.984375 6.59375 
Q 38.421875 6.59375 43.015625 9.90625 
Q 47.609375 13.234375 47.609375 19.390625 
Q 47.609375 24.75 44.3125 27.78125 
Q 41.015625 30.8125 33.5 32.328125 
L 27.484375 33.5 
Q 16.453125 35.6875 11.515625 40.375 
Q 6.59375 45.0625 6.59375 53.421875 
Q 6.59375 63.09375 13.40625 68.65625 
Q 20.21875 74.21875 32.171875 74.21875 
Q 37.3125 74.21875 42.625 73.28125 
Q 47.953125 72.359375 53.515625 70.515625 
z
" id="DejaVuSans-83"/>
     <path d="M 45.40625 27.984375 
Q 45.40625 37.75 41.375 43.109375 
Q 37.359375 48.484375 30.078125 48.484375 
Q 22.859375 48.484375 18.828125 43.109375 
Q 14.796875 37.75 14.796875 27.984375 
Q 14.796875 18.265625 18.828125 12.890625 
Q 22.859375 7.515625 30.078125 7.515625 
Q 37.359375 7.515625 41.375 12.890625 
Q 45.40625 18.265625 45.40625 27.984375 
z
M 54.390625 6.78125 
Q 54.390625 -7.171875 48.1875 -13.984375 
Q 42 -20.796875 29.203125 -20.796875 
Q 24.46875 -20.796875 20.265625 -20.09375 
Q 16.0625 -19.390625 12.109375 -17.921875 
L 12.109375 -9.1875 
Q 16.0625 -11.328125 19.921875 -12.34375 
Q 23.78125 -13.375 27.78125 -13.375 
Q 36.625 -13.375 41.015625 -8.765625 
Q 45.40625 -4.15625 45.40625 5.171875 
L 45.40625 9.625 
Q 42.625 4.78125 38.28125 2.390625 
Q 33.9375 0 27.875 0 
Q 17.828125 0 11.671875 7.65625 
Q 5.515625 15.328125 5.515625 27.984375 
Q 5.515625 40.671875 11.671875 48.328125 
Q 17.828125 56 27.875 56 
Q 33.9375 56 38.28125 53.609375 
Q 42.625 51.21875 45.40625 46.390625 
L 45.40625 54.6875 
L 54.390625 54.6875 
z
" id="DejaVuSans-103"/>
    </defs>
    <g transform="translate(328.846563 16.318125)scale(0.12 -0.12)">
     <use xlink:href="#DejaVuSans-82"/>
     <use x="69.482422" xlink:href="#DejaVuSans-69"/>
     <use x="132.666016" xlink:href="#DejaVuSans-68"/>
     <use x="209.667969" xlink:href="#DejaVuSans-32"/>
     <use x="241.455078" xlink:href="#DejaVuSans-73"/>
     <use x="270.947266" xlink:href="#DejaVuSans-110"/>
     <use x="334.326172" xlink:href="#DejaVuSans-112"/>
     <use x="397.802734" xlink:href="#DejaVuSans-117"/>
     <use x="461.181641" xlink:href="#DejaVuSans-116"/>
     <use x="500.390625" xlink:href="#DejaVuSans-32"/>
     <use x="532.177734" xlink:href="#DejaVuSans-83"/>
     <use x="595.654297" xlink:href="#DejaVuSans-105"/>
     <use x="623.4375" xlink:href="#DejaVuSans-103"/>
     <use x="686.914062" xlink:href="#DejaVuSans-110"/>
     <use x="750.292969" xlink:href="#DejaVuSans-97"/>
     <use x="811.572266" xlink:href="#DejaVuSans-108"/>
    </g>
   </g>
  </g>
  <g id="axes_2">
   <g id="patch_7">
    <path d="M 53.328125 176.818125 
L 705.088125 176.818125 
L 705.088125 127.868125 
L 53.328125 127.868125 
z
" style="fill:#ffffff;"/>
   </g>
   <g id="matplotlib.axis_3">
    <g id="xtick_6">
     <g id="line2d_9">
      <g>
       <use style="stroke:#000000;stroke-width:0.8;" x="153.195068" xlink:href="#me3cd4f365e" y="176.818125"/>
      </g>
     </g>
     <g id="text_12">
      <!-- 4 -->
      <g transform="translate(150.013818 191.416562)scale(0.1 -0.1)">
       <use xlink:href="#DejaVuSans-52"/>
      </g>
     </g>
    </g>
    <g id="xtick_7">
     <g id="line2d_10">
      <g>
       <use style="stroke:#000000;stroke-width:0.8;" x="275.994873" xlink:href="#me3cd4f365e" y="176.818125"/>
      </g>
     </g>
     <g id="text_13">
      <!-- 5 -->
      <g transform="translate(272.813623 191.416562)scale(0.1 -0.1)">
       <use xlink:href="#DejaVuSans-53"/>
      </g>
     </g>
    </g>
    <g id="xtick_8">
     <g id="line2d_11">
      <g>
       <use style="stroke:#000000;stroke-width:0.8;" x="398.794708" xlink:href="#me3cd4f365e" y="176.818125"/>
      </g>
     </g>
     <g id="text_14">
      <!-- 6 -->
      <g transform="translate(395.613458 191.416562)scale(0.1 -0.1)">
       <use xlink:href="#DejaVuSans-54"/>
      </g>
     </g>
    </g>
    <g id="xtick_9">
     <g id="line2d_12">
      <g>
       <use style="stroke:#000000;stroke-width:0.8;" x="521.594513" xlink:href="#me3cd4f365e" y="176.818125"/>
      </g>
     </g>
     <g id="text_15">
      <!-- 7 -->
      <g transform="translate(518.413263 191.416562)scale(0.1 -0.1)">
       <use xlink:href="#DejaVuSans-55"/>
      </g>
     </g>
    </g>
    <g id="xtick_10">
     <g id="line2d_13">
      <g>
       <use style="stroke:#000000;stroke-width:0.8;" x="644.394318" xlink:href="#me3cd4f365e" y="176.818125"/>
      </g>
     </g>
     <g id="text_16">
      <!-- 8 -->
      <g transform="translate(641.213068 191.416562)scale(0.1 -0.1)">
       <use xlink:href="#DejaVuSans-56"/>
      </g>
     </g>
    </g>
    <g id="text_17">
     <!-- Time (ms) -->
     <g transform="translate(353.855 205.094687)scale(0.1 -0.1)">
      <use xlink:href="#DejaVuSans-84"/>
      <use x="61.037109" xlink:href="#DejaVuSans-105"/>
      <use x="88.820312" xlink:href="#DejaVuSans-109"/>
      <use x="186.232422" xlink:href="#DejaVuSans-101"/>
      <use x="247.755859" xlink:href="#DejaVuSans-32"/>
      <use x="279.542969" xlink:href="#DejaVuSans-40"/>
      <use x="318.556641" xlink:href="#DejaVuSans-109"/>
      <use x="415.96875" xlink:href="#DejaVuSans-115"/>
      <use x="468.068359" xlink:href="#DejaVuSans-41"/>
     </g>
    </g>
    <g id="text_18">
     <!-- 1e3+1.57752161e12 -->
     <g transform="translate(598.511562 204.094687)scale(0.1 -0.1)">
      <use xlink:href="#DejaVuSans-49"/>
      <use x="63.623047" xlink:href="#DejaVuSans-101"/>
      <use x="125.146484" xlink:href="#DejaVuSans-51"/>
      <use x="188.769531" xlink:href="#DejaVuSans-43"/>
      <use x="272.558594" xlink:href="#DejaVuSans-49"/>
      <use x="336.181641" xlink:href="#DejaVuSans-46"/>
      <use x="367.96875" xlink:href="#DejaVuSans-53"/>
      <use x="431.591797" xlink:href="#DejaVuSans-55"/>
      <use x="495.214844" xlink:href="#DejaVuSans-55"/>
      <use x="558.837891" xlink:href="#DejaVuSans-53"/>
      <use x="622.460938" xlink:href="#DejaVuSans-50"/>
      <use x="686.083984" xlink:href="#DejaVuSans-49"/>
      <use x="749.707031" xlink:href="#DejaVuSans-54"/>
      <use x="813.330078" xlink:href="#DejaVuSans-49"/>
      <use x="876.953125" xlink:href="#DejaVuSans-101"/>
      <use x="938.476562" xlink:href="#DejaVuSans-49"/>
      <use x="1002.099609" xlink:href="#DejaVuSans-50"/>
     </g>
    </g>
   </g>
   <g id="matplotlib.axis_4">
    <g id="ytick_3">
     <g id="line2d_14">
      <g>
       <use style="stroke:#000000;stroke-width:0.8;" x="53.328125" xlink:href="#mfe45144f0f" y="174.572245"/>
      </g>
     </g>
     <g id="text_19">
      <!-- 0 -->
      <g transform="translate(39.965625 178.371463)scale(0.1 -0.1)">
       <use xlink:href="#DejaVuSans-48"/>
      </g>
     </g>
    </g>
    <g id="ytick_4">
     <g id="line2d_15">
      <g>
       <use style="stroke:#000000;stroke-width:0.8;" x="53.328125" xlink:href="#mfe45144f0f" y="131.161689"/>
      </g>
     </g>
     <g id="text_20">
      <!-- 1000 -->
      <g transform="translate(20.878125 134.960908)scale(0.1 -0.1)">
       <use xlink:href="#DejaVuSans-49"/>
       <use x="63.623047" xlink:href="#DejaVuSans-48"/>
       <use x="127.246094" xlink:href="#DejaVuSans-48"/>
       <use x="190.869141" xlink:href="#DejaVuSans-48"/>
      </g>
     </g>
    </g>
    <g id="text_21">
     <!-- ADC Value -->
     <g transform="translate(14.798438 178.807187)rotate(-90)scale(0.1 -0.1)">
      <use xlink:href="#DejaVuSans-65"/>
      <use x="68.408203" xlink:href="#DejaVuSans-68"/>
      <use x="145.410156" xlink:href="#DejaVuSans-67"/>
      <use x="215.234375" xlink:href="#DejaVuSans-32"/>
      <use x="247.021484" xlink:href="#DejaVuSans-86"/>
      <use x="315.320312" xlink:href="#DejaVuSans-97"/>
      <use x="376.599609" xlink:href="#DejaVuSans-108"/>
      <use x="404.382812" xlink:href="#DejaVuSans-117"/>
      <use x="467.761719" xlink:href="#DejaVuSans-101"/>
     </g>
    </g>
   </g>
   <g id="line2d_16">
    <path clip-path="url(#p25f85fc58d)" d="M 82.953583 170.155073 
L 88.111176 160.196948 
L 95.970367 143.885271 
L 98.303558 138.837956 
L 101.250763 134.634017 
L 103.706757 131.663984 
L 106.531158 130.208059 
L 109.232727 130.390431 
L 111.811523 132.171366 
L 114.267548 135.371289 
L 116.723541 139.712479 
L 119.179535 144.862286 
L 124.091522 156.166473 
L 126.793121 161.611055 
L 129.371918 166.458964 
L 131.950714 170.391461 
L 134.52951 173.131561 
L 137.108307 174.470282 
L 139.564301 174.293293 
L 142.143097 172.600034 
L 144.721893 169.509202 
L 147.30069 165.248426 
L 149.756683 160.130386 
L 157.124664 143.362061 
L 159.703461 138.5336 
L 162.282257 134.617664 
L 164.861053 131.852854 
L 167.317047 130.410986 
L 170.018646 130.389315 
L 172.47464 131.803023 
L 174.930634 134.579185 
L 177.386627 138.554463 
L 179.842621 143.479082 
L 185.000214 154.826246 
L 187.57901 160.467842 
L 190.157806 165.557804 
L 192.736603 169.740723 
L 195.438202 172.731064 
L 197.771393 174.334854 
L 200.350189 174.461422 
L 202.806213 173.124776 
L 205.262207 170.43603 
L 207.963776 166.589486 
L 210.4198 161.845303 
L 217.664978 145.430244 
L 220.120972 140.3735 
L 222.699768 136.070476 
L 225.278564 132.796227 
L 227.734558 130.76624 
L 230.313354 130.12142 
L 232.769348 130.916745 
L 235.102539 133.114908 
L 237.804138 136.585686 
L 240.137329 141.111427 
L 250.329712 163.174829 
L 252.908508 167.795405 
L 255.610107 171.366206 
L 258.066101 173.650699 
L 260.399323 174.507545 
L 262.978119 173.897736 
L 265.556915 171.881775 
L 268.012909 168.608832 
L 270.468903 164.301077 
L 272.924896 159.236498 
L 277.959686 148.130862 
L 280.41568 142.782699 
L 282.871674 138.032052 
L 285.696075 134.19623 
L 288.029266 131.543424 
L 290.608063 130.269563 
L 293.186859 130.478129 
L 295.642853 132.166973 
L 298.344452 135.225229 
L 303.133636 144.522225 
L 305.835236 150.1167 
L 310.870026 161.328626 
L 313.448822 166.208888 
L 315.904816 170.173627 
L 318.238007 172.970742 
L 320.694031 174.422161 
L 323.272827 174.434273 
L 325.728821 173.004798 
L 328.307617 170.225033 
L 330.640808 166.275888 
L 333.342407 161.417001 
L 336.166779 155.969133 
L 338.377197 150.29134 
L 340.833191 144.755492 
L 343.289185 139.720688 
L 345.867981 135.509912 
L 348.323975 132.390377 
L 350.779968 130.558195 
L 353.235962 130.127545 
L 355.691956 131.124512 
L 358.270752 133.485716 
L 360.849548 137.062069 
L 363.551147 141.627583 
L 366.129944 146.892949 
L 368.463135 152.522769 
L 370.919128 158.15544 
L 375.953918 167.980308 
L 378.409943 171.512894 
L 380.988739 173.7731 
L 383.32193 174.593125 
L 386.146332 173.902988 
L 388.479523 171.740687 
L 390.935516 168.253139 
L 396.338715 158.364523 
L 398.671906 152.662112 
L 403.706696 141.667929 
L 406.285492 137.091705 
L 408.741486 133.521356 
L 411.074677 131.16646 
L 413.776276 130.160893 
L 416.109467 130.559936 
L 418.56546 132.33864 
L 421.021454 135.391544 
L 423.723053 139.535034 
L 428.880646 150.016821 
L 431.213837 155.690498 
L 433.915436 161.167599 
L 436.494232 166.088672 
L 438.950226 170.125623 
L 441.283447 173.00182 
L 443.985016 174.509221 
L 446.318237 174.523212 
L 449.019806 173.015429 
L 451.47583 170.06332 
L 454.054626 165.85356 
L 456.633423 160.675549 
L 459.089417 154.902288 
L 462.282196 148.958714 
L 464.615387 143.281282 
L 466.948578 138.27568 
L 469.404602 134.280559 
L 471.860596 131.543446 
L 474.316589 130.211341 
L 477.018188 130.33388 
L 479.474182 131.873921 
L 482.052979 134.719379 
L 484.386169 138.6922 
L 486.842163 143.553662 
L 489.420959 149.008832 
L 491.876953 154.714824 
L 494.45575 160.296874 
L 497.157349 165.373578 
L 499.613342 169.588839 
L 502.192139 172.645128 
L 504.648132 174.331563 
L 507.104126 174.541388 
L 509.682922 173.276661 
L 512.261719 170.641058 
L 514.717712 166.824654 
L 517.173706 162.085064 
L 524.787292 145.533856 
L 527.243286 140.40255 
L 529.822083 136.033547 
L 532.278107 132.719885 
L 534.7341 130.691223 
L 537.190094 130.093125 
L 539.646088 130.971833 
L 542.224884 133.26786 
L 544.80368 136.820103 
L 547.259674 141.380173 
L 549.83847 146.634709 
L 554.750458 157.80905 
L 557.206451 163.015343 
L 559.662445 167.532007 
L 562.118439 171.085622 
L 564.697235 173.45846 
L 567.276031 174.497235 
L 569.732025 174.122021 
L 572.188019 172.335676 
L 574.644043 169.231839 
L 577.100037 164.997994 
L 579.678833 159.909561 
L 582.012024 154.312386 
L 587.292419 143.147634 
L 589.748413 138.33619 
L 592.327209 134.463131 
L 594.783203 131.756005 
L 597.239197 130.362952 
L 599.69519 130.358003 
L 602.39679 131.747736 
L 604.852783 134.472347 
L 607.308777 138.398424 
L 609.764771 143.30722 
L 617.255554 160.436005 
L 619.711548 165.513304 
L 622.413147 169.595993 
L 624.869141 172.416854 
L 627.816345 173.847614 
L 630.395142 173.886853 
L 632.851135 172.617437 
L 635.429932 170.153632 
L 637.885925 166.604597 
L 640.464722 162.075583 
L 645.376709 150.762866 
L 647.70993 144.645216 
L 650.165924 138.941312 
L 652.74472 134.332287 
L 655.077911 131.45484 
L 657.656708 130.723451 
L 660.235504 132.176723 
L 662.814301 135.408127 
L 675.462677 139.617913 
L 675.462677 139.617913 
" style="fill:none;stroke:#1f77b4;stroke-linecap:square;stroke-width:1.5;"/>
   </g>
   <g id="patch_8">
    <path d="M 53.328125 176.818125 
L 53.328125 127.868125 
" style="fill:none;stroke:#000000;stroke-linecap:square;stroke-linejoin:miter;stroke-width:0.8;"/>
   </g>
   <g id="patch_9">
    <path d="M 705.088125 176.818125 
L 705.088125 127.868125 
" style="fill:none;stroke:#000000;stroke-linecap:square;stroke-linejoin:miter;stroke-width:0.8;"/>
   </g>
   <g id="patch_10">
    <path d="M 53.328125 176.818125 
L 705.088135 176.818125 
" style="fill:none;stroke:#000000;stroke-linecap:square;stroke-linejoin:miter;stroke-width:0.8;"/>
   </g>
   <g id="patch_11">
    <path d="M 53.328125 127.868125 
L 705.088135 127.868125 
" style="fill:none;stroke:#000000;stroke-linecap:square;stroke-linejoin:miter;stroke-width:0.8;"/>
   </g>
   <g id="text_22">
    <!-- Pre-processed Signal -->
    <defs>
     <path d="M 19.671875 64.796875 
L 19.671875 37.40625 
L 32.078125 37.40625 
Q 38.96875 37.40625 42.71875 40.96875 
Q 46.484375 44.53125 46.484375 51.125 
Q 46.484375 57.671875 42.71875 61.234375 
Q 38.96875 64.796875 32.078125 64.796875 
z
M 9.8125 72.90625 
L 32.078125 72.90625 
Q 44.34375 72.90625 50.609375 67.359375 
Q 56.890625 61.8125 56.890625 51.125 
Q 56.890625 40.328125 50.609375 34.8125 
Q 44.34375 29.296875 32.078125 29.296875 
L 19.671875 29.296875 
L 19.671875 0 
L 9.8125 0 
z
" id="DejaVuSans-80"/>
     <path d="M 41.109375 46.296875 
Q 39.59375 47.171875 37.8125 47.578125 
Q 36.03125 48 33.890625 48 
Q 26.265625 48 22.1875 43.046875 
Q 18.109375 38.09375 18.109375 28.8125 
L 18.109375 0 
L 9.078125 0 
L 9.078125 54.6875 
L 18.109375 54.6875 
L 18.109375 46.1875 
Q 20.953125 51.171875 25.484375 53.578125 
Q 30.03125 56 36.53125 56 
Q 37.453125 56 38.578125 55.875 
Q 39.703125 55.765625 41.0625 55.515625 
z
" id="DejaVuSans-114"/>
     <path d="M 4.890625 31.390625 
L 31.203125 31.390625 
L 31.203125 23.390625 
L 4.890625 23.390625 
z
" id="DejaVuSans-45"/>
     <path d="M 30.609375 48.390625 
Q 23.390625 48.390625 19.1875 42.75 
Q 14.984375 37.109375 14.984375 27.296875 
Q 14.984375 17.484375 19.15625 11.84375 
Q 23.34375 6.203125 30.609375 6.203125 
Q 37.796875 6.203125 41.984375 11.859375 
Q 46.1875 17.53125 46.1875 27.296875 
Q 46.1875 37.015625 41.984375 42.703125 
Q 37.796875 48.390625 30.609375 48.390625 
z
M 30.609375 56 
Q 42.328125 56 49.015625 48.375 
Q 55.71875 40.765625 55.71875 27.296875 
Q 55.71875 13.875 49.015625 6.21875 
Q 42.328125 -1.421875 30.609375 -1.421875 
Q 18.84375 -1.421875 12.171875 6.21875 
Q 5.515625 13.875 5.515625 27.296875 
Q 5.515625 40.765625 12.171875 48.375 
Q 18.84375 56 30.609375 56 
z
" id="DejaVuSans-111"/>
     <path d="M 48.78125 52.59375 
L 48.78125 44.1875 
Q 44.96875 46.296875 41.140625 47.34375 
Q 37.3125 48.390625 33.40625 48.390625 
Q 24.65625 48.390625 19.8125 42.84375 
Q 14.984375 37.3125 14.984375 27.296875 
Q 14.984375 17.28125 19.8125 11.734375 
Q 24.65625 6.203125 33.40625 6.203125 
Q 37.3125 6.203125 41.140625 7.25 
Q 44.96875 8.296875 48.78125 10.40625 
L 48.78125 2.09375 
Q 45.015625 0.34375 40.984375 -0.53125 
Q 36.96875 -1.421875 32.421875 -1.421875 
Q 20.0625 -1.421875 12.78125 6.34375 
Q 5.515625 14.109375 5.515625 27.296875 
Q 5.515625 40.671875 12.859375 48.328125 
Q 20.21875 56 33.015625 56 
Q 37.15625 56 41.109375 55.140625 
Q 45.0625 54.296875 48.78125 52.59375 
z
" id="DejaVuSans-99"/>
     <path d="M 45.40625 46.390625 
L 45.40625 75.984375 
L 54.390625 75.984375 
L 54.390625 0 
L 45.40625 0 
L 45.40625 8.203125 
Q 42.578125 3.328125 38.25 0.953125 
Q 33.9375 -1.421875 27.875 -1.421875 
Q 17.96875 -1.421875 11.734375 6.484375 
Q 5.515625 14.40625 5.515625 27.296875 
Q 5.515625 40.1875 11.734375 48.09375 
Q 17.96875 56 27.875 56 
Q 33.9375 56 38.25 53.625 
Q 42.578125 51.265625 45.40625 46.390625 
z
M 14.796875 27.296875 
Q 14.796875 17.390625 18.875 11.75 
Q 22.953125 6.109375 30.078125 6.109375 
Q 37.203125 6.109375 41.296875 11.75 
Q 45.40625 17.390625 45.40625 27.296875 
Q 45.40625 37.203125 41.296875 42.84375 
Q 37.203125 48.484375 30.078125 48.484375 
Q 22.953125 48.484375 18.875 42.84375 
Q 14.796875 37.203125 14.796875 27.296875 
z
" id="DejaVuSans-100"/>
    </defs>
    <g transform="translate(316.24375 121.868125)scale(0.12 -0.12)">
     <use xlink:href="#DejaVuSans-80"/>
     <use x="60.287109" xlink:href="#DejaVuSans-114"/>
     <use x="101.369141" xlink:href="#DejaVuSans-101"/>
     <use x="162.892578" xlink:href="#DejaVuSans-45"/>
     <use x="198.976562" xlink:href="#DejaVuSans-112"/>
     <use x="262.453125" xlink:href="#DejaVuSans-114"/>
     <use x="303.535156" xlink:href="#DejaVuSans-111"/>
     <use x="364.716797" xlink:href="#DejaVuSans-99"/>
     <use x="419.697266" xlink:href="#DejaVuSans-101"/>
     <use x="481.220703" xlink:href="#DejaVuSans-115"/>
     <use x="533.320312" xlink:href="#DejaVuSans-115"/>
     <use x="585.419922" xlink:href="#DejaVuSans-101"/>
     <use x="646.943359" xlink:href="#DejaVuSans-100"/>
     <use x="710.419922" xlink:href="#DejaVuSans-32"/>
     <use x="742.207031" xlink:href="#DejaVuSans-83"/>
     <use x="805.683594" xlink:href="#DejaVuSans-105"/>
     <use x="833.466797" xlink:href="#DejaVuSans-103"/>
     <use x="896.943359" xlink:href="#DejaVuSans-110"/>
     <use x="960.322266" xlink:href="#DejaVuSans-97"/>
     <use x="1021.601562" xlink:href="#DejaVuSans-108"/>
    </g>
   </g>
  </g>
  <g id="axes_3">
   <g id="patch_12">
    <path d="M 53.328125 282.368125 
L 705.088125 282.368125 
L 705.088125 233.418125 
L 53.328125 233.418125 
z
" style="fill:#ffffff;"/>
   </g>
   <g id="matplotlib.axis_5">
    <g id="xtick_11">
     <g id="line2d_17">
      <g>
       <use style="stroke:#000000;stroke-width:0.8;" x="153.195068" xlink:href="#me3cd4f365e" y="282.368125"/>
      </g>
     </g>
     <g id="text_23">
      <!-- 4 -->
      <g transform="translate(150.013818 296.966563)scale(0.1 -0.1)">
       <use xlink:href="#DejaVuSans-52"/>
      </g>
     </g>
    </g>
    <g id="xtick_12">
     <g id="line2d_18">
      <g>
       <use style="stroke:#000000;stroke-width:0.8;" x="275.994873" xlink:href="#me3cd4f365e" y="282.368125"/>
      </g>
     </g>
     <g id="text_24">
      <!-- 5 -->
      <g transform="translate(272.813623 296.966563)scale(0.1 -0.1)">
       <use xlink:href="#DejaVuSans-53"/>
      </g>
     </g>
    </g>
    <g id="xtick_13">
     <g id="line2d_19">
      <g>
       <use style="stroke:#000000;stroke-width:0.8;" x="398.794708" xlink:href="#me3cd4f365e" y="282.368125"/>
      </g>
     </g>
     <g id="text_25">
      <!-- 6 -->
      <g transform="translate(395.613458 296.966563)scale(0.1 -0.1)">
       <use xlink:href="#DejaVuSans-54"/>
      </g>
     </g>
    </g>
    <g id="xtick_14">
     <g id="line2d_20">
      <g>
       <use style="stroke:#000000;stroke-width:0.8;" x="521.594513" xlink:href="#me3cd4f365e" y="282.368125"/>
      </g>
     </g>
     <g id="text_26">
      <!-- 7 -->
      <g transform="translate(518.413263 296.966563)scale(0.1 -0.1)">
       <use xlink:href="#DejaVuSans-55"/>
      </g>
     </g>
    </g>
    <g id="xtick_15">
     <g id="line2d_21">
      <g>
       <use style="stroke:#000000;stroke-width:0.8;" x="644.394318" xlink:href="#me3cd4f365e" y="282.368125"/>
      </g>
     </g>
     <g id="text_27">
      <!-- 8 -->
      <g transform="translate(641.213068 296.966563)scale(0.1 -0.1)">
       <use xlink:href="#DejaVuSans-56"/>
      </g>
     </g>
    </g>
    <g id="text_28">
     <!-- 1e3+1.57752161e12 -->
     <g transform="translate(598.511562 309.644687)scale(0.1 -0.1)">
      <use xlink:href="#DejaVuSans-49"/>
      <use x="63.623047" xlink:href="#DejaVuSans-101"/>
      <use x="125.146484" xlink:href="#DejaVuSans-51"/>
      <use x="188.769531" xlink:href="#DejaVuSans-43"/>
      <use x="272.558594" xlink:href="#DejaVuSans-49"/>
      <use x="336.181641" xlink:href="#DejaVuSans-46"/>
      <use x="367.96875" xlink:href="#DejaVuSans-53"/>
      <use x="431.591797" xlink:href="#DejaVuSans-55"/>
      <use x="495.214844" xlink:href="#DejaVuSans-55"/>
      <use x="558.837891" xlink:href="#DejaVuSans-53"/>
      <use x="622.460938" xlink:href="#DejaVuSans-50"/>
      <use x="686.083984" xlink:href="#DejaVuSans-49"/>
      <use x="749.707031" xlink:href="#DejaVuSans-54"/>
      <use x="813.330078" xlink:href="#DejaVuSans-49"/>
      <use x="876.953125" xlink:href="#DejaVuSans-101"/>
      <use x="938.476562" xlink:href="#DejaVuSans-49"/>
      <use x="1002.099609" xlink:href="#DejaVuSans-50"/>
     </g>
    </g>
   </g>
   <g id="matplotlib.axis_6">
    <g id="ytick_5">
     <g id="line2d_22">
      <g>
       <use style="stroke:#000000;stroke-width:0.8;" x="53.328125" xlink:href="#mfe45144f0f" y="280.122245"/>
      </g>
     </g>
     <g id="text_29">
      <!-- 0 -->
      <g transform="translate(39.965625 283.921463)scale(0.1 -0.1)">
       <use xlink:href="#DejaVuSans-48"/>
      </g>
     </g>
    </g>
    <g id="ytick_6">
     <g id="line2d_23">
      <g>
       <use style="stroke:#000000;stroke-width:0.8;" x="53.328125" xlink:href="#mfe45144f0f" y="236.711689"/>
      </g>
     </g>
     <g id="text_30">
      <!-- 1000 -->
      <g transform="translate(20.878125 240.510908)scale(0.1 -0.1)">
       <use xlink:href="#DejaVuSans-49"/>
       <use x="63.623047" xlink:href="#DejaVuSans-48"/>
       <use x="127.246094" xlink:href="#DejaVuSans-48"/>
       <use x="190.869141" xlink:href="#DejaVuSans-48"/>
      </g>
     </g>
    </g>
   </g>
   <g id="LineCollection_1">
    <path clip-path="url(#p125ff42496)" d="M 170.018646 280.011422 
L 170.018646 235.939315 
" style="fill:none;stroke:#000000;stroke-width:1.5;"/>
    <path clip-path="url(#p125ff42496)" d="M 230.313354 280.020282 
L 230.313354 235.67142 
" style="fill:none;stroke:#000000;stroke-width:1.5;"/>
    <path clip-path="url(#p125ff42496)" d="M 290.608063 279.984273 
L 290.608063 235.819563 
" style="fill:none;stroke:#000000;stroke-width:1.5;"/>
    <path clip-path="url(#p125ff42496)" d="M 353.235962 280.057545 
L 353.235962 235.677545 
" style="fill:none;stroke:#000000;stroke-width:1.5;"/>
    <path clip-path="url(#p125ff42496)" d="M 413.776276 280.091388 
L 413.776276 235.710893 
" style="fill:none;stroke:#000000;stroke-width:1.5;"/>
    <path clip-path="url(#p125ff42496)" d="M 474.316589 280.073212 
L 474.316589 235.761341 
" style="fill:none;stroke:#000000;stroke-width:1.5;"/>
    <path clip-path="url(#p125ff42496)" d="M 537.190094 280.047235 
L 537.190094 235.643125 
" style="fill:none;stroke:#000000;stroke-width:1.5;"/>
    <path clip-path="url(#p125ff42496)" d="M 599.69519 279.436853 
L 599.69519 235.908003 
" style="fill:none;stroke:#000000;stroke-width:1.5;"/>
   </g>
   <g id="line2d_24">
    <path clip-path="url(#p125ff42496)" d="M 82.953583 275.705073 
L 88.111176 265.746948 
L 95.970367 249.435271 
L 98.303558 244.387956 
L 101.250763 240.184017 
L 103.706757 237.213984 
L 106.531158 235.758059 
L 109.232727 235.940431 
L 111.811523 237.721366 
L 114.267548 240.921289 
L 116.723541 245.262479 
L 119.179535 250.412286 
L 124.091522 261.716473 
L 126.793121 267.161055 
L 129.371918 272.008964 
L 131.950714 275.941461 
L 134.52951 278.681561 
L 137.108307 280.020282 
L 139.564301 279.843293 
L 142.143097 278.150034 
L 144.721893 275.059202 
L 147.30069 270.798426 
L 149.756683 265.680386 
L 157.124664 248.912061 
L 159.703461 244.0836 
L 162.282257 240.167664 
L 164.861053 237.402854 
L 167.317047 235.960986 
L 170.018646 235.939315 
L 172.47464 237.353023 
L 174.930634 240.129185 
L 177.386627 244.104463 
L 179.842621 249.029082 
L 185.000214 260.376246 
L 187.57901 266.017842 
L 190.157806 271.107804 
L 192.736603 275.290723 
L 195.438202 278.281064 
L 197.771393 279.884854 
L 200.350189 280.011422 
L 202.806213 278.674776 
L 205.262207 275.98603 
L 207.963776 272.139486 
L 210.4198 267.395303 
L 217.664978 250.980244 
L 220.120972 245.9235 
L 222.699768 241.620476 
L 225.278564 238.346227 
L 227.734558 236.31624 
L 230.313354 235.67142 
L 232.769348 236.466745 
L 235.102539 238.664908 
L 237.804138 242.135686 
L 240.137329 246.661427 
L 250.329712 268.724829 
L 252.908508 273.345405 
L 255.610107 276.916206 
L 258.066101 279.200699 
L 260.399323 280.057545 
L 262.978119 279.447736 
L 265.556915 277.431775 
L 268.012909 274.158832 
L 270.468903 269.851077 
L 272.924896 264.786498 
L 277.959686 253.680862 
L 280.41568 248.332699 
L 282.871674 243.582052 
L 285.696075 239.74623 
L 288.029266 237.093424 
L 290.608063 235.819563 
L 293.186859 236.028129 
L 295.642853 237.716973 
L 298.344452 240.775229 
L 303.133636 250.072225 
L 305.835236 255.6667 
L 310.870026 266.878626 
L 313.448822 271.758888 
L 315.904816 275.723627 
L 318.238007 278.520742 
L 320.694031 279.972161 
L 323.272827 279.984273 
L 325.728821 278.554798 
L 328.307617 275.775033 
L 330.640808 271.825888 
L 333.342407 266.967001 
L 336.166779 261.519133 
L 338.377197 255.84134 
L 340.833191 250.305492 
L 343.289185 245.270688 
L 345.867981 241.059912 
L 348.323975 237.940377 
L 350.779968 236.108195 
L 353.235962 235.677545 
L 355.691956 236.674512 
L 358.270752 239.035716 
L 360.849548 242.612069 
L 363.551147 247.177583 
L 366.129944 252.442949 
L 368.463135 258.072769 
L 370.919128 263.70544 
L 375.953918 273.530308 
L 378.409943 277.062894 
L 380.988739 279.3231 
L 383.32193 280.143125 
L 386.146332 279.452988 
L 388.479523 277.290687 
L 390.935516 273.803139 
L 396.338715 263.914523 
L 398.671906 258.212112 
L 403.706696 247.217929 
L 406.285492 242.641705 
L 408.741486 239.071356 
L 411.074677 236.71646 
L 413.776276 235.710893 
L 416.109467 236.109936 
L 418.56546 237.88864 
L 421.021454 240.941544 
L 423.723053 245.085034 
L 428.880646 255.566821 
L 431.213837 261.240498 
L 433.915436 266.717599 
L 436.494232 271.638672 
L 438.950226 275.675623 
L 441.283447 278.55182 
L 443.985016 280.059221 
L 446.318237 280.073212 
L 449.019806 278.565429 
L 451.47583 275.61332 
L 454.054626 271.40356 
L 456.633423 266.225549 
L 459.089417 260.452288 
L 462.282196 254.508714 
L 464.615387 248.831282 
L 466.948578 243.82568 
L 469.404602 239.830559 
L 471.860596 237.093446 
L 474.316589 235.761341 
L 477.018188 235.88388 
L 479.474182 237.423921 
L 482.052979 240.269379 
L 484.386169 244.2422 
L 486.842163 249.103662 
L 489.420959 254.558832 
L 491.876953 260.264824 
L 494.45575 265.846874 
L 497.157349 270.923578 
L 499.613342 275.138839 
L 502.192139 278.195128 
L 504.648132 279.881563 
L 507.104126 280.091388 
L 509.682922 278.826661 
L 512.261719 276.191058 
L 514.717712 272.374654 
L 517.173706 267.635064 
L 524.787292 251.083856 
L 527.243286 245.95255 
L 529.822083 241.583547 
L 532.278107 238.269885 
L 534.7341 236.241223 
L 537.190094 235.643125 
L 539.646088 236.521833 
L 542.224884 238.81786 
L 544.80368 242.370103 
L 547.259674 246.930173 
L 549.83847 252.184709 
L 554.750458 263.35905 
L 557.206451 268.565343 
L 559.662445 273.082007 
L 562.118439 276.635622 
L 564.697235 279.00846 
L 567.276031 280.047235 
L 569.732025 279.672021 
L 572.188019 277.885676 
L 574.644043 274.781839 
L 577.100037 270.547994 
L 579.678833 265.459561 
L 582.012024 259.862386 
L 587.292419 248.697634 
L 589.748413 243.88619 
L 592.327209 240.013131 
L 594.783203 237.306005 
L 597.239197 235.912952 
L 599.69519 235.908003 
L 602.39679 237.297736 
L 604.852783 240.022347 
L 607.308777 243.948424 
L 609.764771 248.85722 
L 617.255554 265.986005 
L 619.711548 271.063304 
L 622.413147 275.145993 
L 624.869141 277.966854 
L 627.816345 279.397614 
L 630.395142 279.436853 
L 632.851135 278.167437 
L 635.429932 275.703632 
L 637.885925 272.154597 
L 640.464722 267.625583 
L 645.376709 256.312866 
L 647.70993 250.195216 
L 650.165924 244.491312 
L 652.74472 239.882287 
L 655.077911 237.00484 
L 657.656708 236.273451 
L 660.235504 237.726723 
L 662.814301 240.958127 
L 675.462677 245.167913 
L 675.462677 245.167913 
" style="fill:none;stroke:#1f77b4;stroke-linecap:square;stroke-width:1.5;"/>
   </g>
   <g id="line2d_25">
    <defs>
     <path d="M -3 3 
L 3 -3 
M -3 -3 
L 3 3 
" id="m9b651c09ae" style="stroke:#008000;"/>
    </defs>
    <g clip-path="url(#p125ff42496)">
     <use style="fill:#008000;stroke:#008000;" x="170.018646" xlink:href="#m9b651c09ae" y="235.939315"/>
     <use style="fill:#008000;stroke:#008000;" x="230.313354" xlink:href="#m9b651c09ae" y="235.67142"/>
     <use style="fill:#008000;stroke:#008000;" x="290.608063" xlink:href="#m9b651c09ae" y="235.819563"/>
     <use style="fill:#008000;stroke:#008000;" x="353.235962" xlink:href="#m9b651c09ae" y="235.677545"/>
     <use style="fill:#008000;stroke:#008000;" x="413.776276" xlink:href="#m9b651c09ae" y="235.710893"/>
     <use style="fill:#008000;stroke:#008000;" x="474.316589" xlink:href="#m9b651c09ae" y="235.761341"/>
     <use style="fill:#008000;stroke:#008000;" x="537.190094" xlink:href="#m9b651c09ae" y="235.643125"/>
     <use style="fill:#008000;stroke:#008000;" x="599.69519" xlink:href="#m9b651c09ae" y="235.908003"/>
    </g>
   </g>
   <g id="line2d_26">
    <defs>
     <path d="M -3 3 
L 3 -3 
M -3 -3 
L 3 3 
" id="m11a1b148ec" style="stroke:#ff0000;"/>
    </defs>
    <g clip-path="url(#p125ff42496)">
     <use style="fill:#ff0000;stroke:#ff0000;" x="170.018646" xlink:href="#m11a1b148ec" y="280.011422"/>
     <use style="fill:#ff0000;stroke:#ff0000;" x="230.313354" xlink:href="#m11a1b148ec" y="280.020282"/>
     <use style="fill:#ff0000;stroke:#ff0000;" x="290.608063" xlink:href="#m11a1b148ec" y="279.984273"/>
     <use style="fill:#ff0000;stroke:#ff0000;" x="353.235962" xlink:href="#m11a1b148ec" y="280.057545"/>
     <use style="fill:#ff0000;stroke:#ff0000;" x="413.776276" xlink:href="#m11a1b148ec" y="280.091388"/>
     <use style="fill:#ff0000;stroke:#ff0000;" x="474.316589" xlink:href="#m11a1b148ec" y="280.073212"/>
     <use style="fill:#ff0000;stroke:#ff0000;" x="537.190094" xlink:href="#m11a1b148ec" y="280.047235"/>
     <use style="fill:#ff0000;stroke:#ff0000;" x="599.69519" xlink:href="#m11a1b148ec" y="279.436853"/>
    </g>
   </g>
   <g id="patch_13">
    <path d="M 53.328125 282.368125 
L 53.328125 233.418125 
" style="fill:none;stroke:#000000;stroke-linecap:square;stroke-linejoin:miter;stroke-width:0.8;"/>
   </g>
   <g id="patch_14">
    <path d="M 705.088125 282.368125 
L 705.088125 233.418125 
" style="fill:none;stroke:#000000;stroke-linecap:square;stroke-linejoin:miter;stroke-width:0.8;"/>
   </g>
   <g id="patch_15">
    <path d="M 53.328125 282.368125 
L 705.088135 282.368125 
" style="fill:none;stroke:#000000;stroke-linecap:square;stroke-linejoin:miter;stroke-width:0.8;"/>
   </g>
   <g id="patch_16">
    <path d="M 53.328125 233.418125 
L 705.088135 233.418125 
" style="fill:none;stroke:#000000;stroke-linecap:square;stroke-linejoin:miter;stroke-width:0.8;"/>
   </g>
   <g id="text_31">
    <!-- AC Components -->
    <g transform="translate(331.047813 227.418125)scale(0.12 -0.12)">
     <use xlink:href="#DejaVuSans-65"/>
     <use x="68.392578" xlink:href="#DejaVuSans-67"/>
     <use x="138.216797" xlink:href="#DejaVuSans-32"/>
     <use x="170.003906" xlink:href="#DejaVuSans-67"/>
     <use x="239.828125" xlink:href="#DejaVuSans-111"/>
     <use x="301.009766" xlink:href="#DejaVuSans-109"/>
     <use x="398.421875" xlink:href="#DejaVuSans-112"/>
     <use x="461.898438" xlink:href="#DejaVuSans-111"/>
     <use x="523.080078" xlink:href="#DejaVuSans-110"/>
     <use x="586.458984" xlink:href="#DejaVuSans-101"/>
     <use x="647.982422" xlink:href="#DejaVuSans-110"/>
     <use x="711.361328" xlink:href="#DejaVuSans-116"/>
     <use x="750.570312" xlink:href="#DejaVuSans-115"/>
    </g>
   </g>
  </g>
  <g id="axes_4">
   <g id="patch_17">
    <path d="M 53.328125 387.918125 
L 705.088125 387.918125 
L 705.088125 338.968125 
L 53.328125 338.968125 
z
" style="fill:#ffffff;"/>
   </g>
   <g id="matplotlib.axis_7">
    <g id="xtick_16">
     <g id="line2d_27">
      <g>
       <use style="stroke:#000000;stroke-width:0.8;" x="153.195068" xlink:href="#me3cd4f365e" y="387.918125"/>
      </g>
     </g>
     <g id="text_32">
      <!-- 4 -->
      <g transform="translate(150.013818 402.516563)scale(0.1 -0.1)">
       <use xlink:href="#DejaVuSans-52"/>
      </g>
     </g>
    </g>
    <g id="xtick_17">
     <g id="line2d_28">
      <g>
       <use style="stroke:#000000;stroke-width:0.8;" x="275.994873" xlink:href="#me3cd4f365e" y="387.918125"/>
      </g>
     </g>
     <g id="text_33">
      <!-- 5 -->
      <g transform="translate(272.813623 402.516563)scale(0.1 -0.1)">
       <use xlink:href="#DejaVuSans-53"/>
      </g>
     </g>
    </g>
    <g id="xtick_18">
     <g id="line2d_29">
      <g>
       <use style="stroke:#000000;stroke-width:0.8;" x="398.794708" xlink:href="#me3cd4f365e" y="387.918125"/>
      </g>
     </g>
     <g id="text_34">
      <!-- 6 -->
      <g transform="translate(395.613458 402.516563)scale(0.1 -0.1)">
       <use xlink:href="#DejaVuSans-54"/>
      </g>
     </g>
    </g>
    <g id="xtick_19">
     <g id="line2d_30">
      <g>
       <use style="stroke:#000000;stroke-width:0.8;" x="521.594513" xlink:href="#me3cd4f365e" y="387.918125"/>
      </g>
     </g>
     <g id="text_35">
      <!-- 7 -->
      <g transform="translate(518.413263 402.516563)scale(0.1 -0.1)">
       <use xlink:href="#DejaVuSans-55"/>
      </g>
     </g>
    </g>
    <g id="xtick_20">
     <g id="line2d_31">
      <g>
       <use style="stroke:#000000;stroke-width:0.8;" x="644.394318" xlink:href="#me3cd4f365e" y="387.918125"/>
      </g>
     </g>
     <g id="text_36">
      <!-- 8 -->
      <g transform="translate(641.213068 402.516563)scale(0.1 -0.1)">
       <use xlink:href="#DejaVuSans-56"/>
      </g>
     </g>
    </g>
    <g id="text_37">
     <!-- 1e3+1.57752161e12 -->
     <g transform="translate(598.511562 415.194687)scale(0.1 -0.1)">
      <use xlink:href="#DejaVuSans-49"/>
      <use x="63.623047" xlink:href="#DejaVuSans-101"/>
      <use x="125.146484" xlink:href="#DejaVuSans-51"/>
      <use x="188.769531" xlink:href="#DejaVuSans-43"/>
      <use x="272.558594" xlink:href="#DejaVuSans-49"/>
      <use x="336.181641" xlink:href="#DejaVuSans-46"/>
      <use x="367.96875" xlink:href="#DejaVuSans-53"/>
      <use x="431.591797" xlink:href="#DejaVuSans-55"/>
      <use x="495.214844" xlink:href="#DejaVuSans-55"/>
      <use x="558.837891" xlink:href="#DejaVuSans-53"/>
      <use x="622.460938" xlink:href="#DejaVuSans-50"/>
      <use x="686.083984" xlink:href="#DejaVuSans-49"/>
      <use x="749.707031" xlink:href="#DejaVuSans-54"/>
      <use x="813.330078" xlink:href="#DejaVuSans-49"/>
      <use x="876.953125" xlink:href="#DejaVuSans-101"/>
      <use x="938.476562" xlink:href="#DejaVuSans-49"/>
      <use x="1002.099609" xlink:href="#DejaVuSans-50"/>
     </g>
    </g>
   </g>
   <g id="matplotlib.axis_8">
    <g id="ytick_7">
     <g id="line2d_32">
      <g>
       <use style="stroke:#000000;stroke-width:0.8;" x="53.328125" xlink:href="#mfe45144f0f" y="385.672245"/>
      </g>
     </g>
     <g id="text_38">
      <!-- 0 -->
      <g transform="translate(39.965625 389.471463)scale(0.1 -0.1)">
       <use xlink:href="#DejaVuSans-48"/>
      </g>
     </g>
    </g>
    <g id="ytick_8">
     <g id="line2d_33">
      <g>
       <use style="stroke:#000000;stroke-width:0.8;" x="53.328125" xlink:href="#mfe45144f0f" y="342.261689"/>
      </g>
     </g>
     <g id="text_39">
      <!-- 1000 -->
      <g transform="translate(20.878125 346.060908)scale(0.1 -0.1)">
       <use xlink:href="#DejaVuSans-49"/>
       <use x="63.623047" xlink:href="#DejaVuSans-48"/>
       <use x="127.246094" xlink:href="#DejaVuSans-48"/>
       <use x="190.869141" xlink:href="#DejaVuSans-48"/>
      </g>
     </g>
    </g>
   </g>
   <g id="line2d_34">
    <path clip-path="url(#p985288ee41)" d="M 82.953583 381.255073 
L 88.111176 371.296948 
L 95.970367 354.985271 
L 98.303558 349.937956 
L 101.250763 345.734017 
L 103.706757 342.763984 
L 106.531158 341.308059 
L 109.232727 341.490431 
L 111.811523 343.271366 
L 114.267548 346.471289 
L 116.723541 350.812479 
L 119.179535 355.962286 
L 124.091522 367.266473 
L 126.793121 372.711055 
L 129.371918 377.558964 
L 131.950714 381.491461 
L 134.52951 384.231561 
L 137.108307 385.570282 
L 139.564301 385.393293 
L 142.143097 383.700034 
L 144.721893 380.609202 
L 147.30069 376.348426 
L 149.756683 371.230386 
L 157.124664 354.462061 
L 159.703461 349.6336 
L 162.282257 345.717664 
L 164.861053 342.952854 
L 167.317047 341.510986 
L 170.018646 341.489315 
L 172.47464 342.903023 
L 174.930634 345.679185 
L 177.386627 349.654463 
L 179.842621 354.579082 
L 185.000214 365.926246 
L 187.57901 371.567842 
L 190.157806 376.657804 
L 192.736603 380.840723 
L 195.438202 383.831064 
L 197.771393 385.434854 
L 200.350189 385.561422 
L 202.806213 384.224776 
L 205.262207 381.53603 
L 207.963776 377.689486 
L 210.4198 372.945303 
L 217.664978 356.530244 
L 220.120972 351.4735 
L 222.699768 347.170476 
L 225.278564 343.896227 
L 227.734558 341.86624 
L 230.313354 341.22142 
L 232.769348 342.016745 
L 235.102539 344.214908 
L 237.804138 347.685686 
L 240.137329 352.211427 
L 250.329712 374.274829 
L 252.908508 378.895405 
L 255.610107 382.466206 
L 258.066101 384.750699 
L 260.399323 385.607545 
L 262.978119 384.997736 
L 265.556915 382.981775 
L 268.012909 379.708832 
L 270.468903 375.401077 
L 272.924896 370.336498 
L 277.959686 359.230862 
L 280.41568 353.882699 
L 282.871674 349.132052 
L 285.696075 345.29623 
L 288.029266 342.643424 
L 290.608063 341.369563 
L 293.186859 341.578129 
L 295.642853 343.266973 
L 298.344452 346.325229 
L 303.133636 355.622225 
L 305.835236 361.2167 
L 310.870026 372.428626 
L 313.448822 377.308888 
L 315.904816 381.273627 
L 318.238007 384.070742 
L 320.694031 385.522161 
L 323.272827 385.534273 
L 325.728821 384.104798 
L 328.307617 381.325033 
L 330.640808 377.375888 
L 333.342407 372.517001 
L 336.166779 367.069133 
L 338.377197 361.39134 
L 340.833191 355.855492 
L 343.289185 350.820688 
L 345.867981 346.609912 
L 348.323975 343.490377 
L 350.779968 341.658195 
L 353.235962 341.227545 
L 355.691956 342.224512 
L 358.270752 344.585716 
L 360.849548 348.162069 
L 363.551147 352.727583 
L 366.129944 357.992949 
L 368.463135 363.622769 
L 370.919128 369.25544 
L 375.953918 379.080308 
L 378.409943 382.612894 
L 380.988739 384.8731 
L 383.32193 385.693125 
L 386.146332 385.002988 
L 388.479523 382.840687 
L 390.935516 379.353139 
L 396.338715 369.464523 
L 398.671906 363.762112 
L 403.706696 352.767929 
L 406.285492 348.191705 
L 408.741486 344.621356 
L 411.074677 342.26646 
L 413.776276 341.260893 
L 416.109467 341.659936 
L 418.56546 343.43864 
L 421.021454 346.491544 
L 423.723053 350.635034 
L 428.880646 361.116821 
L 431.213837 366.790498 
L 433.915436 372.267599 
L 436.494232 377.188672 
L 438.950226 381.225623 
L 441.283447 384.10182 
L 443.985016 385.609221 
L 446.318237 385.623212 
L 449.019806 384.115429 
L 451.47583 381.16332 
L 454.054626 376.95356 
L 456.633423 371.775549 
L 459.089417 366.002288 
L 462.282196 360.058714 
L 464.615387 354.381282 
L 466.948578 349.37568 
L 469.404602 345.380559 
L 471.860596 342.643446 
L 474.316589 341.311341 
L 477.018188 341.43388 
L 479.474182 342.973921 
L 482.052979 345.819379 
L 484.386169 349.7922 
L 486.842163 354.653662 
L 489.420959 360.108832 
L 491.876953 365.814824 
L 494.45575 371.396874 
L 497.157349 376.473578 
L 499.613342 380.688839 
L 502.192139 383.745128 
L 504.648132 385.431563 
L 507.104126 385.641388 
L 509.682922 384.376661 
L 512.261719 381.741058 
L 514.717712 377.924654 
L 517.173706 373.185064 
L 524.787292 356.633856 
L 527.243286 351.50255 
L 529.822083 347.133547 
L 532.278107 343.819885 
L 534.7341 341.791223 
L 537.190094 341.193125 
L 539.646088 342.071833 
L 542.224884 344.36786 
L 544.80368 347.920103 
L 547.259674 352.480173 
L 549.83847 357.734709 
L 554.750458 368.90905 
L 557.206451 374.115343 
L 559.662445 378.632007 
L 562.118439 382.185622 
L 564.697235 384.55846 
L 567.276031 385.597235 
L 569.732025 385.222021 
L 572.188019 383.435676 
L 574.644043 380.331839 
L 577.100037 376.097994 
L 579.678833 371.009561 
L 582.012024 365.412386 
L 587.292419 354.247634 
L 589.748413 349.43619 
L 592.327209 345.563131 
L 594.783203 342.856005 
L 597.239197 341.462952 
L 599.69519 341.458003 
L 602.39679 342.847736 
L 604.852783 345.572347 
L 607.308777 349.498424 
L 609.764771 354.40722 
L 617.255554 371.536005 
L 619.711548 376.613304 
L 622.413147 380.695993 
L 624.869141 383.516854 
L 627.816345 384.947614 
L 630.395142 384.986853 
L 632.851135 383.717437 
L 635.429932 381.253632 
L 637.885925 377.704597 
L 640.464722 373.175583 
L 645.376709 361.862866 
L 647.70993 355.745216 
L 650.165924 350.041312 
L 652.74472 345.432287 
L 655.077911 342.55484 
L 657.656708 341.823451 
L 660.235504 343.276723 
L 662.814301 346.508127 
L 675.462677 350.717913 
L 675.462677 350.717913 
" style="fill:none;stroke:#1f77b4;stroke-linecap:square;stroke-width:1.5;"/>
   </g>
   <g id="line2d_35">
    <g clip-path="url(#p985288ee41)">
     <use style="fill:#ff0000;stroke:#ff0000;" x="137.108307" xlink:href="#m11a1b148ec" y="385.570282"/>
     <use style="fill:#ff0000;stroke:#ff0000;" x="200.350189" xlink:href="#m11a1b148ec" y="385.561422"/>
     <use style="fill:#ff0000;stroke:#ff0000;" x="260.399323" xlink:href="#m11a1b148ec" y="385.607545"/>
     <use style="fill:#ff0000;stroke:#ff0000;" x="323.272827" xlink:href="#m11a1b148ec" y="385.534273"/>
     <use style="fill:#ff0000;stroke:#ff0000;" x="383.32193" xlink:href="#m11a1b148ec" y="385.693125"/>
     <use style="fill:#ff0000;stroke:#ff0000;" x="446.318237" xlink:href="#m11a1b148ec" y="385.623212"/>
     <use style="fill:#ff0000;stroke:#ff0000;" x="507.104126" xlink:href="#m11a1b148ec" y="385.641388"/>
     <use style="fill:#ff0000;stroke:#ff0000;" x="567.276031" xlink:href="#m11a1b148ec" y="385.597235"/>
    </g>
   </g>
   <g id="patch_18">
    <path d="M 53.328125 387.918125 
L 53.328125 338.968125 
" style="fill:none;stroke:#000000;stroke-linecap:square;stroke-linejoin:miter;stroke-width:0.8;"/>
   </g>
   <g id="patch_19">
    <path d="M 705.088125 387.918125 
L 705.088125 338.968125 
" style="fill:none;stroke:#000000;stroke-linecap:square;stroke-linejoin:miter;stroke-width:0.8;"/>
   </g>
   <g id="patch_20">
    <path d="M 53.328125 387.918125 
L 705.088135 387.918125 
" style="fill:none;stroke:#000000;stroke-linecap:square;stroke-linejoin:miter;stroke-width:0.8;"/>
   </g>
   <g id="patch_21">
    <path d="M 53.328125 338.968125 
L 705.088135 338.968125 
" style="fill:none;stroke:#000000;stroke-linecap:square;stroke-linejoin:miter;stroke-width:0.8;"/>
   </g>
   <g id="text_40">
    <!-- DC Components -->
    <g transform="translate(330.53125 332.968125)scale(0.12 -0.12)">
     <use xlink:href="#DejaVuSans-68"/>
     <use x="77.001953" xlink:href="#DejaVuSans-67"/>
     <use x="146.826172" xlink:href="#DejaVuSans-32"/>
     <use x="178.613281" xlink:href="#DejaVuSans-67"/>
     <use x="248.4375" xlink:href="#DejaVuSans-111"/>
     <use x="309.619141" xlink:href="#DejaVuSans-109"/>
     <use x="407.03125" xlink:href="#DejaVuSans-112"/>
     <use x="470.507812" xlink:href="#DejaVuSans-111"/>
     <use x="531.689453" xlink:href="#DejaVuSans-110"/>
     <use x="595.068359" xlink:href="#DejaVuSans-101"/>
     <use x="656.591797" xlink:href="#DejaVuSans-110"/>
     <use x="719.970703" xlink:href="#DejaVuSans-116"/>
     <use x="759.179688" xlink:href="#DejaVuSans-115"/>
    </g>
   </g>
  </g>
 </g>
 <defs>
  <clipPath id="pa98989b51d">
   <rect height="48.95" width="651.76" x="53.328125" y="22.318125"/>
  </clipPath>
  <clipPath id="p25f85fc58d">
   <rect height="48.95" width="651.76" x="53.328125" y="127.868125"/>
  </clipPath>
  <clipPath id="p125ff42496">
   <rect height="48.95" width="651.76" x="53.328125" y="233.418125"/>
  </clipPath>
  <clipPath id="p985288ee41">
   <rect height="48.95" width="651.76" x="53.328125" y="338.968125"/>
  </clipPath>
 </defs>
</svg>
